<svg width="1584" height="396" viewBox="0 0 1584 396" fill="none" xmlns="http://www.w3.org/2000/svg">
<rect width="1584" height="396" fill="#F5F5F5"/>
<g id="Awesome banner" clip-path="url(#clip0_0_1)">
<rect width="1584" height="396" fill="url(#paint0_linear_0_1)"/>
<ellipse id="Ellipse 2" cx="323" cy="64" rx="285" ry="288" fill="url(#paint1_linear_0_1)" fill-opacity="0.1"/>
<g id="copyright">
<text fill="white" fill-opacity="0.9" style="white-space: pre" xml:space="preserve" font-family="JetBrains Mono" font-size="32" font-weight="100" letter-spacing="0em"><tspan x="127.562" y="334.52"> - COMMUNITY NODES</tspan></text>
<text fill="white" fill-opacity="0.9" style="white-space: pre" xml:space="preserve" font-family="JetBrains Mono" font-size="32" font-weight="bold" letter-spacing="0em"><tspan x="70" y="334.52">N8N</tspan></text>
</g>
<text id="placeholder-description" fill="white" fill-opacity="0.7" style="white-space: pre" xml:space="preserve" font-family="JetBrains Mono" font-size="24" letter-spacing="0em"><tspan x="70" y="197.64">GMX decentralized perpetual exchange offering spot and </tspan><tspan x="70" y="229.64">leverage trading with deep liquidity on Arbitrum and </tspan><tspan x="70" y="261.64">Avalanche</tspan></text>
<text id="placeholder-name" fill="url(#paint2_linear_0_1)" style="white-space: pre" xml:space="preserve" font-family="JetBrains Mono" font-size="96" font-weight="500" letter-spacing="0em"><tspan x="62" y="136.06">GMX</tspan></text>
<g id="Group 1">
<rect id="Rectangle 1" x="26" y="168" width="12" height="184" rx="5" fill="url(#paint3_linear_0_1)" fill-opacity="0.9"/>
</g>
<g id="Group 1_2">
<rect id="Rectangle 2" x="26" y="38" width="12" height="119" rx="5" fill="url(#paint4_linear_0_1)" fill-opacity="0.9"/>
</g>
<ellipse id="Ellipse 1" cx="148.5" cy="573" rx="215.5" ry="214" fill="url(#paint5_linear_0_1)" fill-opacity="0.4"/>
<rect id="Rectangle 3" x="1229" y="48" width="300" height="300" rx="25" fill="#FFFBFB" fill-opacity="0.9"/>
<g id="placeholder-logo">
<g id="Group">
<path id="svg_1" fill-rule="evenodd" clip-rule="evenodd" d="M1373.29 175.545C1367.99 175.545 1363.53 167.016 1362.27 155.475H1349.23C1346.45 155.475 1344.08 160.204 1343.62 166.655L1343.15 173.255C1342.71 179.52 1341.36 184.972 1339.45 188.925C1341.36 192.878 1342.71 198.33 1343.15 204.595L1343.62 211.195C1344.08 217.646 1346.45 222.375 1349.23 222.375H1350.89C1352.16 210.834 1356.61 202.305 1361.91 202.305C1368.19 202.305 1373.29 214.286 1373.29 229.065C1373.29 243.844 1368.19 255.825 1361.91 255.825C1356.61 255.825 1352.16 247.296 1350.89 235.755H1349.23C1343.67 235.755 1338.92 226.298 1338.01 213.395L1337.54 206.795C1337.08 200.344 1334.71 195.615 1331.93 195.615H1327.42C1326.16 207.156 1321.71 215.685 1316.41 215.685C1311.11 215.685 1306.65 207.156 1305.39 195.615H1298.98C1297.72 207.156 1293.27 215.685 1287.97 215.685C1281.68 215.685 1276.59 203.704 1276.59 188.925C1276.59 174.146 1281.68 162.165 1287.97 162.165C1293.27 162.165 1297.72 170.694 1298.98 182.235H1305.39C1306.65 170.694 1311.11 162.165 1316.41 162.165C1321.71 162.165 1326.16 170.694 1327.42 182.235H1331.93C1334.71 182.235 1337.08 177.506 1337.54 171.055L1338.01 164.455C1338.92 151.552 1343.67 142.095 1349.23 142.095H1362.27C1363.53 130.554 1367.99 122.025 1373.29 122.025C1379.57 122.025 1384.66 134.006 1384.66 148.785C1384.66 163.564 1379.57 175.545 1373.29 175.545ZM1373.29 162.165C1376.43 162.165 1378.97 156.174 1378.97 148.785C1378.97 141.396 1376.43 135.405 1373.29 135.405C1370.14 135.405 1367.6 141.396 1367.6 148.785C1367.6 156.174 1370.14 162.165 1373.29 162.165ZM1287.97 202.305C1291.11 202.305 1293.65 196.314 1293.65 188.925C1293.65 181.536 1291.11 175.545 1287.97 175.545C1284.82 175.545 1282.28 181.536 1282.28 188.925C1282.28 196.314 1284.82 202.305 1287.97 202.305ZM1322.09 188.925C1322.09 196.314 1319.55 202.305 1316.41 202.305C1313.26 202.305 1310.72 196.314 1310.72 188.925C1310.72 181.536 1313.26 175.545 1316.41 175.545C1319.55 175.545 1322.09 181.536 1322.09 188.925ZM1367.6 229.065C1367.6 236.454 1365.05 242.445 1361.91 242.445C1358.77 242.445 1356.22 236.454 1356.22 229.065C1356.22 221.676 1358.77 215.685 1361.91 215.685C1365.05 215.685 1367.6 221.676 1367.6 229.065Z" fill="#EA4B71"/>
<path id="svg_2" fill-rule="evenodd" clip-rule="evenodd" d="M1452.93 179.879V179.242C1454.91 176.904 1456.9 172.866 1456.9 164.896C1456.9 153.418 1452.88 146.51 1447.33 146.51C1441.65 146.51 1437.59 153.843 1437.59 165.107C1437.59 172.76 1439.48 176.904 1441.56 179.242V179.879C1439.26 181.792 1436.51 187.531 1436.51 197.096C1436.51 208.678 1440.57 216.755 1447.29 216.755C1454.01 216.755 1457.93 208.678 1457.93 197.096C1457.93 187.531 1455.23 181.898 1452.93 179.879ZM1447.29 156.288C1449.54 156.288 1451.21 159.687 1451.21 165.426C1451.21 171.165 1449.5 174.566 1447.29 174.566C1445.08 174.566 1443.23 171.165 1443.23 165.426C1443.23 159.582 1444.99 156.288 1447.29 156.288ZM1447.29 206.553C1444.67 206.553 1442.55 202.622 1442.55 195.926C1442.55 189.869 1444.31 185.299 1447.24 185.299C1450.13 185.299 1451.89 189.762 1451.89 196.139C1451.89 202.622 1449.86 206.553 1447.29 206.553Z" fill="#101330"/>
<path id="svg_3" d="M1464.89 215.693H1470.66V186.893C1470.66 177.435 1473.1 173.29 1475.85 173.29C1478.56 173.29 1480.68 177.542 1480.68 186.256V215.693H1486.45V183.493C1486.45 169.571 1483.02 161.495 1477.66 161.495C1474.27 161.495 1472.38 164.683 1471.03 168.827H1470.66L1470.17 162.557H1464.89V215.693Z" fill="#101330"/>
<path id="svg_4" d="M1413.78 215.693H1408.01V162.557H1413.29L1413.78 168.827H1414.15C1415.5 164.683 1417.39 161.495 1420.78 161.495C1426.14 161.495 1429.57 169.571 1429.57 183.493V215.693H1423.8V186.256C1423.8 177.542 1421.68 173.29 1418.97 173.29C1416.22 173.29 1413.78 177.435 1413.78 186.893V215.693Z" fill="#101330"/>
</g>
</g>
</g>
<defs>
<linearGradient id="paint0_linear_0_1" x1="0" y1="198" x2="1584" y2="198" gradientUnits="userSpaceOnUse">
<stop stop-color="#3D052C"/>
<stop offset="1"/>
</linearGradient>
<linearGradient id="paint1_linear_0_1" x1="323" y1="-224" x2="323" y2="352" gradientUnits="userSpaceOnUse">
<stop stop-color="#28F6F2" stop-opacity="0.4"/>
<stop offset="1" stop-color="#17908E" stop-opacity="0.7"/>
</linearGradient>
<linearGradient id="paint2_linear_0_1" x1="148.5" y1="38" x2="148.5" y2="140" gradientUnits="userSpaceOnUse">
<stop stop-color="white"/>
<stop offset="1" stop-color="#999999"/>
</linearGradient>
<linearGradient id="paint3_linear_0_1" x1="38" y1="260" x2="26" y2="260" gradientUnits="userSpaceOnUse">
<stop stop-color="#D9D9D9"/>
<stop offset="1" stop-color="#737373"/>
</linearGradient>
<linearGradient id="paint4_linear_0_1" x1="38" y1="97.5" x2="26" y2="97.5" gradientUnits="userSpaceOnUse">
<stop stop-color="#D9D9D9"/>
<stop offset="1" stop-color="#737373"/>
</linearGradient>
<linearGradient id="paint5_linear_0_1" x1="27.5" y1="434.5" x2="148.5" y2="787" gradientUnits="userSpaceOnUse">
<stop stop-color="#2E21BC"/>
<stop offset="1" stop-color="#150F56"/>
</linearGradient>
<clipPath id="clip0_0_1">
<rect width="1584" height="396" fill="white"/>
</clipPath>
</defs>
</svg>
